<svg width="20" height="20" viewBox="0 0 20 20" fill="none" xmlns="http://www.w3.org/2000/svg">
<path d="M10 15.8333C12.7583 15.8333 15 13.5917 15 10.8333V6.66667C15 3.90833 12.7583 1.66667 10 1.66667C7.24167 1.66667 5 3.90833 5 6.66667V10.8333C5 13.5917 7.24167 15.8333 10 15.8333Z" stroke="#999999" stroke-width="1.5" stroke-linecap="round" stroke-linejoin="round"/>
<path d="M2.5 9.16667V10.8333C2.5 14.975 5.85833 18.3333 10 18.3333C14.1417 18.3333 17.5 14.975 17.5 10.8333V9.16667" stroke="#999999" stroke-width="1.5" stroke-linecap="round" stroke-linejoin="round"/>
<path d="M7.59155 6.23333C9.07489 5.69167 10.6916 5.69167 12.1749 6.23333" stroke="#999999" stroke-width="1.5" stroke-linecap="round" stroke-linejoin="round"/>
<path d="M8.3584 8.73333C9.3584 8.45833 10.4167 8.45833 11.4167 8.73333" stroke="#999999" stroke-width="1.5" stroke-linecap="round" stroke-linejoin="round"/>
</svg>
