<svg width="14" height="14" viewBox="0 0 14 14" fill="none" xmlns="http://www.w3.org/2000/svg">
<path d="M3.0625 0.25C2.31658 0.25 1.60121 0.546316 1.07376 1.07376C0.546316 1.60121 0.25 2.31658 0.25 3.0625V10.9375C0.25 11.6834 0.546316 12.3988 1.07376 12.9262C1.60121 13.4537 2.31658 13.75 3.0625 13.75H10.9375C11.6834 13.75 12.3988 13.4537 12.9262 12.9262C13.4537 12.3988 13.75 11.6834 13.75 10.9375V3.0625C13.75 2.31658 13.4537 1.60121 12.9262 1.07376C12.3988 0.546316 11.6834 0.25 10.9375 0.25H3.0625ZM10.2108 5.71075L6.27325 9.64825C6.221 9.70063 6.15893 9.74219 6.09059 9.77055C6.02225 9.79891 5.94899 9.81351 5.875 9.81351C5.80101 9.81351 5.72775 9.79891 5.65941 9.77055C5.59107 9.74219 5.529 9.70063 5.47675 9.64825L3.78925 7.96075C3.73695 7.90845 3.69547 7.84636 3.66716 7.77803C3.63886 7.7097 3.62429 7.63646 3.62429 7.5625C3.62429 7.48854 3.63886 7.4153 3.66716 7.34697C3.69547 7.27864 3.73695 7.21655 3.78925 7.16425C3.89487 7.05863 4.03813 6.99929 4.1875 6.99929C4.26146 6.99929 4.3347 7.01386 4.40303 7.04216C4.47136 7.07047 4.53345 7.11195 4.58575 7.16425L5.875 8.45463L9.41425 4.91425C9.51987 4.80863 9.66313 4.74929 9.8125 4.74929C9.96187 4.74929 10.1051 4.80863 10.2108 4.91425C10.3164 5.01987 10.3757 5.16313 10.3757 5.3125C10.3757 5.46187 10.3164 5.60513 10.2108 5.71075Z" fill="url(#paint0_linear_104_28)"/>
<defs>
<linearGradient id="paint0_linear_104_28" x1="7" y1="0.25" x2="7" y2="13.75" gradientUnits="userSpaceOnUse">
<stop stop-color="#7CC1F3"/>
<stop offset="1" stop-color="#D27EEF"/>
</linearGradient>
</defs>
</svg>
