<svg width="16" height="8" viewBox="0 0 16 8" fill="none" xmlns="http://www.w3.org/2000/svg">
<path d="M15.0312 5.80468C14.967 5.84132 14.8961 5.86493 14.8227 5.87415C14.7494 5.88338 14.6749 5.87804 14.6036 5.85845C14.5322 5.83886 14.4655 5.80539 14.4071 5.75997C14.3488 5.71455 14.2999 5.65807 14.2634 5.59375L12.9275 3.25937C12.1508 3.78452 11.294 4.18013 10.3906 4.43078L10.8033 6.90718C10.8155 6.98009 10.8132 7.05468 10.7965 7.12669C10.7799 7.1987 10.7492 7.26672 10.7062 7.32686C10.6632 7.387 10.6088 7.43808 10.5461 7.47719C10.4834 7.51629 10.4136 7.54265 10.3407 7.55476C10.3107 7.55967 10.2804 7.56226 10.25 7.5625C10.1169 7.5623 9.9882 7.51493 9.88676 7.4288C9.78532 7.34268 9.71769 7.22338 9.6959 7.09211L9.2902 4.6607C8.43463 4.77976 7.5667 4.77976 6.71114 4.6607L6.30543 7.09211C6.2836 7.22362 6.21577 7.34311 6.11404 7.42926C6.0123 7.51541 5.88328 7.56263 5.74996 7.5625C5.71887 7.56237 5.68784 7.55978 5.65715 7.55476C5.58424 7.54265 5.51442 7.51629 5.4517 7.47719C5.38898 7.43808 5.33458 7.387 5.29162 7.32686C5.24865 7.26672 5.21796 7.1987 5.20129 7.12669C5.18463 7.05468 5.18232 6.98009 5.1945 6.90718L5.60934 4.43078C4.70627 4.17934 3.84998 3.78302 3.07387 3.25726L1.74215 5.59375C1.70522 5.65811 1.65597 5.71456 1.59722 5.75988C1.53847 5.80521 1.47136 5.83852 1.39974 5.85791C1.32811 5.8773 1.25337 5.88239 1.17978 5.8729C1.10618 5.86341 1.03518 5.83951 0.970824 5.80258C0.906466 5.76564 0.850013 5.71639 0.804688 5.65764C0.759363 5.59889 0.726054 5.53179 0.706662 5.46016C0.687271 5.38854 0.682177 5.31379 0.691671 5.2402C0.701165 5.16661 0.725061 5.09561 0.761995 5.03125L2.16825 2.57031C1.6743 2.14357 1.22009 1.67289 0.811214 1.16406C0.760223 1.10713 0.721369 1.0404 0.697024 0.96795C0.672679 0.895502 0.663353 0.818851 0.669617 0.742679C0.675881 0.666506 0.697602 0.592409 0.733455 0.524911C0.769308 0.457412 0.81854 0.397928 0.878147 0.350089C0.937754 0.302251 1.00648 0.267061 1.08014 0.246669C1.1538 0.226277 1.23084 0.221109 1.30657 0.231482C1.38229 0.241855 1.4551 0.267551 1.52057 0.307002C1.58603 0.346452 1.64276 0.398828 1.68731 0.460935C2.8545 1.90515 4.89637 3.625 7.99996 3.625C11.1036 3.625 13.1454 1.90304 14.3126 0.460935C14.3567 0.397557 14.4133 0.343919 14.4789 0.303359C14.5446 0.262798 14.6179 0.236181 14.6943 0.225166C14.7707 0.21415 14.8485 0.218971 14.9229 0.239327C14.9974 0.259684 15.0668 0.295142 15.127 0.343494C15.1871 0.391846 15.2367 0.452059 15.2726 0.520386C15.3084 0.588713 15.3299 0.663693 15.3355 0.74066C15.3412 0.817627 15.331 0.894936 15.3055 0.967776C15.28 1.04062 15.2397 1.10743 15.1873 1.16406C14.7784 1.67289 14.3242 2.14357 13.8303 2.57031L15.2365 5.03125C15.2743 5.0954 15.2989 5.1664 15.309 5.24015C15.3191 5.31389 15.3145 5.38891 15.2954 5.46085C15.2763 5.53279 15.2431 5.60022 15.1978 5.65925C15.1524 5.71827 15.0958 5.7677 15.0312 5.80468Z" fill="white"/>
</svg>
