<svg width="77" height="83" viewBox="0 0 77 83" fill="none" xmlns="http://www.w3.org/2000/svg">
<path d="M36.0772 51.9939V72.8576C36.0772 73.6575 35.6268 74.4245 34.8249 74.9899C34.0235 75.5555 32.9362 75.8732 31.8022 75.8732C30.6686 75.8732 29.5812 75.5555 28.7794 74.9899C27.9776 74.4245 27.5272 73.6575 27.5272 72.8576V52.0227C28.7176 52.636 30.1445 52.9782 31.6181 53.0039C33.2242 53.0362 34.7979 52.6798 36.0772 51.9939ZM72.4862 45.9628C71.4013 45.9628 70.3606 46.2669 69.5936 46.808C68.8265 47.349 68.3953 48.0832 68.3953 48.8485V52.4845C68.3953 53.2844 68.8457 54.0514 69.6476 54.6167C70.449 55.1823 71.5363 55.5 72.6703 55.5C73.8043 55.5 74.8917 55.1823 75.6931 54.6167C76.4949 54.0514 76.9453 53.2844 76.9453 52.4845V48.9927C76.9772 48.5789 76.8823 48.1651 76.6672 47.7796C76.452 47.3941 76.1218 47.0455 75.6984 46.7581C75.2754 46.4706 74.7694 46.2507 74.2155 46.1134C73.6612 45.9763 73.0713 45.9249 72.4862 45.9628ZM18.2408 59.9007C16.7688 59.8696 15.3437 59.5279 14.1499 58.9196V79.841C14.1499 80.6447 14.6024 81.4155 15.408 81.9837C16.2135 82.5519 17.3061 82.871 18.4453 82.871C19.5846 82.871 20.6771 82.5519 21.4827 81.9837C22.2883 81.4155 22.7408 80.6447 22.7408 79.841V59.0639C21.4049 59.6731 19.8287 59.9663 18.2408 59.9007ZM59.1499 39.7008C58.5956 39.6811 58.0417 39.7414 57.5213 39.8776C57.0013 40.0138 56.526 40.2234 56.1238 40.4932C55.7221 40.7633 55.4026 41.0879 55.1842 41.4478C54.9661 41.8076 54.8536 42.1952 54.8544 42.5865V58.6599C54.8544 59.4636 55.3069 60.2343 56.1124 60.8025C56.9183 61.3707 58.0106 61.6899 59.1499 61.6899C60.2892 61.6899 61.3819 61.3707 62.1874 60.8025C62.9929 60.2343 63.4453 59.4636 63.4453 58.6599V42.7885C63.4781 42.3721 63.3823 41.9556 63.1647 41.5678C62.9471 41.18 62.6133 40.8299 62.1853 40.5419C61.7574 40.2539 61.2465 40.0346 60.6873 39.8996C60.128 39.7642 59.5336 39.716 58.9453 39.7585L59.1499 39.7008ZM45.5681 45.8762C44.027 45.8687 42.5273 45.5261 41.2726 44.895V65.8742C41.2726 66.6778 41.7251 67.4486 42.5306 68.0168C43.3365 68.585 44.4288 68.9042 45.5681 68.9042C46.7074 68.9042 47.7997 68.585 48.6056 68.0168C49.4111 67.4486 49.8635 66.6778 49.8635 65.8742V44.9239C48.5659 45.6058 46.9815 45.9613 45.3635 45.9339L45.5681 45.8762ZM8.95443 61.9496V3.34076C8.94368 2.62634 8.53377 1.94381 7.81377 1.44132C7.09377 0.938833 6.12181 0.657015 5.10898 0.657043H4.20898C3.19615 0.657015 2.22419 0.938833 1.50419 1.44132C0.784194 1.94381 0.374284 2.62634 0.363525 3.34076V61.9496C0.363525 62.669 0.768689 63.359 1.48983 63.8677C2.21098 64.3765 3.18912 64.6622 4.20898 64.6622H5.10898C6.12888 64.6622 7.10698 64.3765 7.82812 63.8677C8.54931 63.359 8.95443 62.669 8.95443 61.9496ZM18.6908 57.6787H17.7908C16.7709 57.6787 15.7928 57.3931 15.0717 56.8843C14.3505 56.3756 13.9453 55.6856 13.9453 54.9662V10.3242C13.9561 9.6098 14.366 8.92721 15.086 8.42475C15.806 7.92226 16.778 7.64044 17.7908 7.64047H18.6908C19.7036 7.64044 20.6756 7.92226 21.3956 8.42475C22.1156 8.92721 22.5255 9.6098 22.5363 10.3242V55.0239C22.5363 55.7433 22.1311 56.4333 21.4099 56.942C20.6888 57.4508 19.7107 57.7365 18.6908 57.7365V57.6787ZM32.2317 50.8107H31.2908C30.282 50.8107 29.3141 50.5279 28.6006 50.0247C27.8872 49.5214 27.4863 48.8389 27.4863 48.127V17.2499C27.4809 16.895 27.5754 16.543 27.764 16.214C27.9526 15.8851 28.232 15.5858 28.5859 15.3336C28.9398 15.0813 29.3611 14.881 29.8254 14.7443C30.2898 14.6077 30.7876 14.5373 31.2908 14.5373H32.2317C33.2446 14.5449 34.2121 14.8341 34.9243 15.342C35.637 15.8498 36.0363 16.5355 36.0363 17.2499V48.127C36.0363 48.8389 35.6353 49.5214 34.9219 50.0247C34.2084 50.5279 33.2409 50.8107 32.2317 50.8107ZM45.7726 43.7408H44.9135C43.9006 43.7408 42.9286 43.4591 42.2086 42.9564C41.4886 42.454 41.0787 41.7715 41.0681 41.057V24.4353C41.0345 24.0648 41.109 23.6934 41.2873 23.3439C41.4653 22.9948 41.7435 22.6747 42.1039 22.4044C42.4643 22.1337 42.8996 21.9184 43.3831 21.7712C43.8662 21.6244 44.387 21.5487 44.9135 21.5496H45.8135C46.8334 21.5496 47.8115 21.8353 48.5328 22.344C49.254 22.8528 49.659 23.5428 49.659 24.2622V40.9993C49.6643 41.358 49.569 41.7138 49.3779 42.0463C49.1873 42.3787 48.905 42.6811 48.5471 42.9362C48.1895 43.191 47.7641 43.3933 47.2944 43.5315C46.8252 43.6698 46.322 43.7408 45.8135 43.7408H45.7726ZM59.3544 37.5365H58.4544C57.4346 37.5365 56.4564 37.2508 55.7352 36.742C55.014 36.2333 54.609 35.5433 54.609 34.8239V30.5242C54.6196 29.8097 55.0295 29.1272 55.7495 28.6248C56.4695 28.1221 57.4415 27.8405 58.4544 27.8405H59.3544C60.3673 27.8405 61.3393 28.1221 62.0593 28.6248C62.7793 29.1272 63.1893 29.8097 63.1999 30.5242V34.8239C63.1999 35.5384 62.8006 36.224 62.088 36.7319C61.3758 37.2398 60.4083 37.529 59.3953 37.5365H59.3544Z" fill="url(#paint0_linear_502_723)"/>
<defs>
<linearGradient id="paint0_linear_502_723" x1="0.363524" y1="49.7142" x2="51.4999" y2="49.7142" gradientUnits="userSpaceOnUse">
<stop stop-color="#39CABD"/>
<stop offset="1" stop-color="#4AB5CA"/>
</linearGradient>
</defs>
</svg>
