<svg width="77" height="83" viewBox="0 0 77 83" fill="none" xmlns="http://www.w3.org/2000/svg">
<path d="M35.7136 51.3369V72.2006C35.7136 73.0005 35.2632 73.7675 34.4614 74.3328C33.66 74.8984 32.5726 75.2161 31.4386 75.2161C30.305 75.2161 29.2177 74.8984 28.4159 74.3328C27.614 73.7675 27.1636 73.0005 27.1636 72.2006V51.3657C28.3541 51.9789 29.781 52.3212 31.2545 52.3468C32.8606 52.3792 34.4344 52.0228 35.7136 51.3369ZM72.1227 45.3057C71.0378 45.3057 69.9971 45.6099 69.23 46.1509C68.463 46.692 68.0318 47.4261 68.0318 48.1914V51.8274C68.0318 52.6273 68.4822 53.3944 69.284 53.9597C70.0855 54.5253 71.1728 54.843 72.3068 54.843C73.4408 54.843 74.5282 54.5253 75.3296 53.9597C76.1314 53.3944 76.5818 52.6273 76.5818 51.8274V48.3357C76.6137 47.9219 76.5188 47.5081 76.3036 47.1226C76.0885 46.737 75.7583 46.3884 75.3349 46.101C74.9119 45.8136 74.4059 45.5937 73.852 45.4563C73.2976 45.3193 72.7077 45.2679 72.1227 45.3057ZM17.8773 59.2437C16.4052 59.2125 14.9802 58.8709 13.7864 58.2626V79.184C13.7864 79.9877 14.2389 80.7584 15.0445 81.3266C15.85 81.8948 16.9426 82.214 18.0818 82.214C19.2211 82.214 20.3136 81.8948 21.1192 81.3266C21.9247 80.7584 22.3773 79.9877 22.3773 79.184V58.4068C21.0414 59.016 19.4652 59.3092 17.8773 59.2437ZM58.7864 39.0437C58.232 39.0241 57.6781 39.0844 57.1578 39.2206C56.6378 39.3568 56.1625 39.5663 55.7603 39.8361C55.3586 40.1062 55.0391 40.4309 54.8206 40.7907C54.6026 41.1506 54.4901 41.5381 54.4909 41.9294V58.0028C54.4909 58.8065 54.9434 59.5773 55.7489 60.1455C56.5548 60.7137 57.647 61.0328 58.7864 61.0328C59.9257 61.0328 61.0184 60.7137 61.8239 60.1455C62.6294 59.5773 63.0818 58.8065 63.0818 58.0028V42.1314C63.1145 41.715 63.0188 41.2986 62.8012 40.9108C62.5835 40.5229 62.2497 40.1729 61.8218 39.8849C61.3939 39.5969 60.883 39.3776 60.3237 39.2425C59.7645 39.1072 59.1701 39.059 58.5818 39.1014L58.7864 39.0437ZM45.2045 45.2191C43.6635 45.2116 42.1638 44.8691 40.9091 44.238V65.2171C40.9091 66.0208 41.3615 66.7916 42.167 67.3598C42.973 67.928 44.0652 68.2471 45.2045 68.2471C46.3439 68.2471 47.4361 67.928 48.242 67.3598C49.0475 66.7916 49.5 66.0208 49.5 65.2171V44.2669C48.2024 44.9487 46.618 45.3043 45 45.2769L45.2045 45.2191ZM8.59091 61.2926V2.68371C8.58015 1.9693 8.17024 1.28677 7.45024 0.784279C6.73024 0.28179 5.75828 -2.88549e-05 4.74545 2.21592e-09H3.84545C2.83263 -2.88549e-05 1.86067 0.28179 1.14067 0.784279C0.420668 1.28677 0.0107591 1.9693 0 2.68371V61.2926C0 62.012 0.405164 62.7019 1.12631 63.2107C1.84745 63.7194 2.82559 64.0051 3.84545 64.0051H4.74545C5.76536 64.0051 6.74345 63.7194 7.4646 63.2107C8.18579 62.7019 8.59091 62.012 8.59091 61.2926ZM18.3273 57.0217H17.4273C16.4074 57.0217 15.4293 56.736 14.7081 56.2273C13.987 55.7185 13.5818 55.0285 13.5818 54.3091V9.66714C13.5926 8.95275 14.0025 8.27017 14.7225 7.76771C15.4425 7.26522 16.4144 6.9834 17.4273 6.98343H18.3273C19.3401 6.9834 20.3121 7.26522 21.0321 7.76771C21.7521 8.27017 22.162 8.95275 22.1727 9.66714V54.3668C22.1727 55.0863 21.7676 55.7762 21.0464 56.285C20.3253 56.7937 19.3471 57.0794 18.3273 57.0794V57.0217ZM31.8682 50.1537H30.9273C29.9185 50.1537 28.9505 49.8709 28.2371 49.3676C27.5236 48.8644 27.1227 48.1819 27.1227 47.47V16.5929C27.1174 16.238 27.2119 15.8859 27.4005 15.557C27.5891 15.228 27.8685 14.9288 28.2224 14.6765C28.5762 14.4242 28.9976 14.224 29.4619 14.0873C29.9262 13.9506 30.4241 13.8803 30.9273 13.8803H31.8682C32.8811 13.8879 33.8486 14.177 34.5608 14.6849C35.2735 15.1928 35.6727 15.8784 35.6727 16.5929V47.47C35.6727 48.1819 35.2718 48.8644 34.5584 49.3676C33.8449 49.8709 32.8774 50.1537 31.8682 50.1537ZM45.4091 43.0837H44.55C43.5371 43.0837 42.5651 42.8021 41.8451 42.2994C41.1251 41.797 40.7152 41.1145 40.7045 40.4V23.7783C40.671 23.4078 40.7455 23.0364 40.9238 22.6869C41.1018 22.3377 41.38 22.0177 41.7404 21.7473C42.1008 21.4766 42.536 21.2614 43.0196 21.1142C43.5027 20.9673 44.0235 20.8917 44.55 20.8926H45.45C46.4699 20.8926 47.448 21.1783 48.1692 21.687C48.8905 22.1958 49.2955 22.8857 49.2955 23.6051V40.3423C49.3008 40.701 49.2055 41.0568 49.0144 41.3892C48.8238 41.7217 48.5415 42.0241 48.1835 42.2792C47.826 42.534 47.4005 42.7363 46.9309 42.8745C46.4617 43.0127 45.9585 43.0837 45.45 43.0837H45.4091ZM58.9909 36.8794H58.0909C57.071 36.8794 56.0929 36.5937 55.3717 36.085C54.6505 35.5762 54.2455 34.8863 54.2455 34.1669V29.8671C54.2561 29.1526 54.666 28.4702 55.386 27.9678C56.106 27.4651 57.078 27.1834 58.0909 27.1834H58.9909C60.0038 27.1834 60.9758 27.4651 61.6958 27.9678C62.4158 28.4702 62.8257 29.1526 62.8364 29.8671V34.1669C62.8364 34.8814 62.4371 35.567 61.7245 36.0749C61.0122 36.5828 60.0447 36.8719 59.0318 36.8794H58.9909Z" fill="url(#paint0_linear_104_62)"/>
<defs>
<linearGradient id="paint0_linear_104_62" x1="-1.35697e-06" y1="49.0571" x2="51.1364" y2="49.0571" gradientUnits="userSpaceOnUse">
<stop stop-color="white"/>
<stop offset="1" stop-color="white"/>
<stop offset="1" stop-color="#190061"/>
</linearGradient>
</defs>
</svg>
