<svg width="400" height="22" viewBox="0 0 400 22" fill="none" xmlns="http://www.w3.org/2000/svg">
<line x1="1" y1="10" x2="169" y2="10" stroke="#4D4D4D" stroke-width="2" stroke-linecap="round"/>
<path d="M201.6 11.272C201.6 12.1573 201.488 12.9627 201.264 13.688C201.051 14.4027 200.72 15.0213 200.272 15.544C199.835 16.0667 199.28 16.4667 198.608 16.744C197.947 17.0213 197.173 17.16 196.288 17.16C195.381 17.16 194.592 17.0213 193.92 16.744C193.259 16.456 192.704 16.056 192.256 15.544C191.819 15.0213 191.493 14.3973 191.28 13.672C191.067 12.9467 190.96 12.1413 190.96 11.256C190.96 10.0827 191.152 9.05867 191.536 8.184C191.92 7.30933 192.507 6.62667 193.296 6.136C194.096 5.64533 195.099 5.4 196.304 5.4C197.477 5.4 198.453 5.64533 199.232 6.136C200.021 6.616 200.613 7.29867 201.008 8.184C201.403 9.05867 201.6 10.088 201.6 11.272ZM192.784 11.272C192.784 12.1893 192.907 12.9787 193.152 13.64C193.397 14.2907 193.781 14.7973 194.304 15.16C194.827 15.512 195.488 15.688 196.288 15.688C197.099 15.688 197.76 15.512 198.272 15.16C198.784 14.7973 199.163 14.2907 199.408 13.64C199.653 12.9787 199.776 12.1893 199.776 11.272C199.776 9.896 199.499 8.824 198.944 8.056C198.4 7.27733 197.52 6.888 196.304 6.888C195.493 6.888 194.827 7.064 194.304 7.416C193.781 7.768 193.397 8.26933 193.152 8.92C192.907 9.57067 192.784 10.3547 192.784 11.272ZM208.147 8.216C208.296 8.216 208.461 8.22667 208.643 8.248C208.824 8.25867 208.973 8.27467 209.091 8.296L208.915 9.88C208.797 9.848 208.659 9.82133 208.499 9.8C208.339 9.77867 208.189 9.768 208.051 9.768C207.731 9.768 207.421 9.832 207.123 9.96C206.835 10.0773 206.573 10.2533 206.339 10.488C206.104 10.712 205.917 10.9893 205.779 11.32C205.651 11.6507 205.587 12.0293 205.587 12.456V17H203.891V8.376H205.235L205.459 9.912H205.523C205.704 9.60267 205.923 9.32 206.179 9.064C206.435 8.808 206.728 8.60533 207.059 8.456C207.389 8.296 207.752 8.216 208.147 8.216Z" fill="#4D4D4D"/>
<line x1="231" y1="10" x2="399" y2="10" stroke="#4D4D4D" stroke-width="2" stroke-linecap="round"/>
</svg>
