<svg width="40" height="40" viewBox="0 0 40 40" fill="none" xmlns="http://www.w3.org/2000/svg">
<path d="M20 3.33333C10.8167 3.33333 3.33337 10.8167 3.33337 20C3.33337 29.1833 10.8167 36.6667 20 36.6667C29.1834 36.6667 36.6667 29.1833 36.6667 20C36.6667 10.8167 29.1834 3.33333 20 3.33333ZM27.9667 16.1667L18.5167 25.6167C18.2834 25.85 17.9667 25.9833 17.6334 25.9833C17.3 25.9833 16.9834 25.85 16.75 25.6167L12.0334 20.9C11.55 20.4167 11.55 19.6167 12.0334 19.1333C12.5167 18.65 13.3167 18.65 13.8 19.1333L17.6334 22.9667L26.2 14.4C26.6834 13.9167 27.4834 13.9167 27.9667 14.4C28.45 14.8833 28.45 15.6667 27.9667 16.1667Z" fill="#39CABD"/>
</svg>
